<svg width="64" height="64" viewBox="0 0 64 64" fill="none" xmlns="http://www.w3.org/2000/svg">
  <!-- Background circle with gradient -->
  <defs>
    <linearGradient id="logoGradient" x1="0%" y1="0%" x2="100%" y2="100%">
      <stop offset="0%" style="stop-color:#10B981;stop-opacity:1" />
      <stop offset="100%" style="stop-color:#059669;stop-opacity:1" />
    </linearGradient>
  </defs>
  <circle cx="32" cy="32" r="32" fill="url(#logoGradient)"/>

  <!-- Recycling symbol -->
  <g transform="translate(16,16)">
    <path d="M16 2L14 4L12 2L10 4L8 2L6 4L4 2V6L6 4L8 6L10 4L12 6L14 4L16 6V2Z" fill="white"/>
    <path d="M16 10L14 12L12 10L10 12L8 10L6 12L4 10V14L6 12L8 14L10 12L12 14L14 12L16 14V10Z" fill="white"/>
    <path d="M16 18L14 20L12 18L10 20L8 18L6 20L4 18V22L6 20L8 22L10 20L12 22L14 20L16 22V18Z" fill="white"/>
  </g>

  <!-- Leaf accent -->
  <path d="M45 20C45 20 50 15 50 10C50 5 45 5 40 10C35 15 40 20 45 20Z" fill="#34D399" opacity="0.8"/>
</svg>